<svg xmlns="http://www.w3.org/2000/svg" xmlns:xlink="http://www.w3.org/1999/xlink" version="1.1" x="0px" y="0px" viewBox="0 0 60 87.5" enable-background="new 0 0 60 70" xml:space="preserve"><path d="M20.78,25.535v18.161c0,1.022,0.829,1.852,1.852,1.852h32.242c1.022,0,1.852-0.829,1.852-1.852V25.535  c0-1.023-0.829-1.851-1.852-1.851h-9.433L45.367,5.021c-0.002-0.781-0.636-1.413-1.417-1.413H4.691  c-0.783,0-1.417,0.635-1.417,1.417v53.288c0,4.436,3.608,8.044,8.044,8.045l37.362,0.032c4.437,0,8.045-3.609,8.045-8.078  c0-0.783-0.634-1.417-1.417-1.417H17.946c-0.783,0-1.417,0.635-1.417,1.417c0,2.873-2.337,5.21-5.21,5.21s-5.211-2.337-5.211-5.21  V6.443h36.43l0.069,17.241H22.632C21.609,23.684,20.78,24.512,20.78,25.535z M19.238,59.731h34.466  c-0.607,2.203-2.63,3.825-5.022,3.825L17.44,63.529C18.348,62.465,18.983,61.163,19.238,59.731z M39.397,36.874  c0.123-0.151,0.288-0.238,0.496-0.262c0.208-0.023,0.388,0.031,0.539,0.163c0.906,0.737,1.809,1.101,2.707,1.091  c0.708,0,1.282-0.163,1.722-0.489c0.439-0.326,0.659-0.678,0.659-1.056c0-0.718-0.832-1.233-2.494-1.545h-0.029  c-0.736-0.142-1.374-0.34-1.913-0.595c-0.538-0.255-0.933-0.583-1.184-0.985c-0.25-0.401-0.375-0.815-0.375-1.24  c0-0.822,0.361-1.498,1.084-2.027c0.723-0.529,1.557-0.793,2.502-0.793c0.415,0,0.841,0.071,1.275,0.212s0.758,0.274,0.971,0.397  c0.213,0.123,0.493,0.297,0.844,0.524c0.16,0.113,0.262,0.269,0.305,0.468c0.042,0.198,0.009,0.38-0.1,0.545  c-0.108,0.166-0.263,0.27-0.461,0.312s-0.383,0.007-0.553-0.106c-0.444-0.302-0.839-0.529-1.184-0.68  c-0.345-0.151-0.711-0.227-1.098-0.227c-0.624,0-1.134,0.147-1.531,0.439c-0.396,0.293-0.595,0.605-0.595,0.936  c0,0.161,0.037,0.298,0.113,0.411c0.264,0.435,0.978,0.761,2.14,0.978h0.028c0.794,0.161,1.446,0.359,1.956,0.595  c1.172,0.576,1.758,1.37,1.758,2.381c0,0.879-0.388,1.6-1.162,2.162c-0.775,0.562-1.668,0.843-2.679,0.843  c-1.238-0.009-2.447-0.482-3.629-1.417c-0.151-0.123-0.238-0.288-0.262-0.496C39.225,37.205,39.274,37.025,39.397,36.874z   M30.603,36.3c0.1-0.194,0.251-0.321,0.454-0.383s0.401-0.045,0.595,0.05c0.194,0.094,0.324,0.246,0.391,0.453  c0.132,0.397,0.368,0.721,0.708,0.971c0.341,0.25,0.751,0.375,1.233,0.375c0.481,0,0.914-0.191,1.297-0.574  c0.383-0.382,0.574-0.838,0.574-1.368v-5.626c0-0.217,0.078-0.402,0.233-0.553c0.156-0.151,0.343-0.227,0.56-0.227  c0.218,0,0.402,0.076,0.553,0.227c0.151,0.151,0.228,0.335,0.228,0.553v5.626c0,0.974-0.346,1.803-1.035,2.488  s-1.521,1.027-2.494,1.027c-0.775,0-1.47-0.227-2.084-0.68s-1.034-1.04-1.261-1.758C30.487,36.694,30.504,36.494,30.603,36.3z"/><text x="0" y="85" fill="#000000" font-size="5px" font-weight="bold" font-family="'Helvetica Neue', Helvetica, Arial-Unicode, Arial, Sans-serif">Created by Mitchell Eva</text><text x="0" y="90" fill="#000000" font-size="5px" font-weight="bold" font-family="'Helvetica Neue', Helvetica, Arial-Unicode, Arial, Sans-serif">from the Noun Project</text></svg>